# xmcd
#
# Track frame offsets:
#   150
#   20493
#   42875
#   60739
#   83637
#   113738
#   139567
#   165836
#   182901
#   204178
#
# Disc length: 3053 seconds
#
# Revision: 4
# Processed by: cddbd v1.5PL3 Copyright (c) Steve Scherf et al.
# Submitted via: Media_Universe 3.0
#
DISCID=740beb0a
DTITLE=Diana Krall - The Look Of Love
DYEAR=2001
DGENRE=Blues
TTITLE0=S'Wonderful
TTITLE1=Love Letters
TTITLE2=I Remember You
TTITLE3=Cry Me A River
TTITLE4=Besame Mucho
TTITLE5=The Night We Called It A Day
TTITLE6=Dancing In The Dark
TTITLE7=I Get Along Without You Very Well
TTITLE8=The Look Of Love
TTITLE9=Maybe You'll Be There
EXTD=
EXTT0=\\t\\t
EXTT1=
EXTT2=
EXTT3=
EXTT4=
EXTT5=
EXTT6=
EXTT7=
EXTT8=
EXTT9=
PLAYORDER=
